HIERARCHY
ROOT Hips
{
  OFFSET 5.84602e-005 68.8428 3.50346
  CHANNELS 6 Xposition Yposition Zposition Zrotation Xrotation Yrotation
  JOINT Spine
  {
    OFFSET 0 8.597 -4.6522
    CHANNELS 3 Zrotation Xrotation Yrotation
    JOINT Spine1
    {
      OFFSET 0 7.8454 0.4098
      CHANNELS 3 Zrotation Xrotation Yrotation
      JOINT Spine2
      {
        OFFSET 0 9.7078 -2.1609
        CHANNELS 3 Zrotation Xrotation Yrotation
        JOINT Neck
        {
          OFFSET 0 21.8761 -0.4549
          CHANNELS 3 Zrotation Xrotation Yrotation
          JOINT Head
          {
            OFFSET 0 12.3537 3.3602
            CHANNELS 3 Zrotation Xrotation Yrotation
            End Site
            {
              OFFSET 0.0001 18.9506 0.5657
            }
          }
        }
        JOINT LeftShoulder
        {
          OFFSET 2.2086 21.1115 7.2329
          CHANNELS 3 Zrotation Xrotation Yrotation
          JOINT LeftArm
          {
            OFFSET 13.1193 3.0282 -4.8998
            CHANNELS 3 Zrotation Xrotation Yrotation
            JOINT LeftForeArm
            {
              OFFSET 27.4081 -0.0973053 -0.2375
              CHANNELS 3 Zrotation Xrotation Yrotation
              JOINT LeftHand
              {
                OFFSET 22.8641 0.0662994 -0.1369
                CHANNELS 3 Zrotation Xrotation Yrotation
                JOINT LeftHandIndex1
                {
                  OFFSET 8.8614 0.775009 2.4612
                  CHANNELS 3 Zrotation Xrotation Yrotation
                  JOINT LeftHandIndex2
                  {
                    OFFSET 3.3146 -0.808304 0.5841
                    CHANNELS 3 Zrotation Xrotation Yrotation
                    JOINT LeftHandIndex3
                    {
                      OFFSET 2.2628 -0.552002 0.3989
                      CHANNELS 3 Zrotation Xrotation Yrotation
                      End Site
                      {
                        OFFSET 1.6102 -0.4807 0.2612
                      }
                    }
                  }
                }
                JOINT LeftHandMiddle1
                {
                  OFFSET 8.9937 0.895004 0.2143
                  CHANNELS 3 Zrotation Xrotation Yrotation
                  JOINT LeftHandMiddle2
                  {
                    OFFSET 4.0984 0.0113983 -0.0242
                    CHANNELS 3 Zrotation Xrotation Yrotation
                    JOINT LeftHandMiddle3
                    {
                      OFFSET 2.2716 0.00689697 -0.0138001
                      CHANNELS 3 Zrotation Xrotation Yrotation
                      End Site
                      {
                        OFFSET 2.0404 -0.1441 0.0027
                      }
                    }
                  }
                }
                JOINT LeftHandRing1
                {
                  OFFSET 8.5234 0.597198 -2.0164
                  CHANNELS 3 Zrotation Xrotation Yrotation
                  JOINT LeftHandRing2
                  {
                    OFFSET 3.7188 -0.188293 -0.2328
                    CHANNELS 3 Zrotation Xrotation Yrotation
                    JOINT LeftHandRing3
                    {
                      OFFSET 2.1191 -0.106598 -0.1332
                      CHANNELS 3 Zrotation Xrotation Yrotation
                      End Site
                      {
                        OFFSET 1.8737 -0.2304 -0.0886
                      }
                    }
                  }
                }
                JOINT LeftHandPinky1
                {
                  OFFSET 7.9094 -0.601089 -3.4825
                  CHANNELS 3 Zrotation Xrotation Yrotation
                  JOINT LeftHandPinky2
                  {
                    OFFSET 2.2874 -0.477005 -0.6314
                    CHANNELS 3 Zrotation Xrotation Yrotation
                    JOINT LeftHandPinky3
                    {
                      OFFSET 1.6774 -0.349396 -0.4633
                      CHANNELS 3 Zrotation Xrotation Yrotation
                      End Site
                      {
                        OFFSET 1.4888 -0.4091 -0.3416
                      }
                    }
                  }
                }
                JOINT LeftHandThumb1
                {
                  OFFSET 1.833 -1.3875 1.3896
                  CHANNELS 3 Zrotation Xrotation Yrotation
                  JOINT LeftHandThumb2
                  {
                    OFFSET 3.4129 -1.121 2.5732
                    CHANNELS 3 Zrotation Xrotation Yrotation
                    JOINT LeftHandThumb3
                    {
                      OFFSET 2.2474 -0.804199 1.6192
                      CHANNELS 3 Zrotation Xrotation Yrotation
                      End Site
                      {
                        OFFSET 1.6527 -0.5689 1.1317
                      }
                    }
                  }
                }
              }
            }
          }
        }
        JOINT RightShoulder
        {
          OFFSET -2.2086 21.1115 7.2329
          CHANNELS 3 Zrotation Xrotation Yrotation
          JOINT RightArm
          {
            OFFSET -13.1216 3.0287 -4.9007
            CHANNELS 3 Zrotation Xrotation Yrotation
            JOINT RightForeArm
            {
              OFFSET -27.4081 -0.0973053 -0.2375
              CHANNELS 3 Zrotation Xrotation Yrotation
              JOINT RightHand
              {
                OFFSET -22.8641 0.0664063 -0.1369
                CHANNELS 3 Zrotation Xrotation Yrotation
                JOINT RightHandIndex1
                {
                  OFFSET -8.8614 0.774994 2.4612
                  CHANNELS 3 Zrotation Xrotation Yrotation
                  JOINT RightHandIndex2
                  {
                    OFFSET -3.3146 -0.808304 0.5841
                    CHANNELS 3 Zrotation Xrotation Yrotation
                    JOINT RightHandIndex3
                    {
                      OFFSET -2.2628 -0.552002 0.3989
                      CHANNELS 3 Zrotation Xrotation Yrotation
                      End Site
                      {
                        OFFSET -1.6102 -0.4807 0.2612
                      }
                    }
                  }
                }
                JOINT RightHandMiddle1
                {
                  OFFSET -8.9937 0.894989 0.2143
                  CHANNELS 3 Zrotation Xrotation Yrotation
                  JOINT RightHandMiddle2
                  {
                    OFFSET -4.0984 0.0113983 -0.0242
                    CHANNELS 3 Zrotation Xrotation Yrotation
                    JOINT RightHandMiddle3
                    {
                      OFFSET -2.2716 0.00691223 -0.0138001
                      CHANNELS 3 Zrotation Xrotation Yrotation
                      End Site
                      {
                        OFFSET -2.0404 -0.1441 0.0027
                      }
                    }
                  }
                }
                JOINT RightHandRing1
                {
                  OFFSET -8.5234 0.597198 -2.0164
                  CHANNELS 3 Zrotation Xrotation Yrotation
                  JOINT RightHandRing2
                  {
                    OFFSET -3.7188 -0.188309 -0.2328
                    CHANNELS 3 Zrotation Xrotation Yrotation
                    JOINT RightHandRing3
                    {
                      OFFSET -2.1191 -0.106598 -0.1332
                      CHANNELS 3 Zrotation Xrotation Yrotation
                      End Site
                      {
                        OFFSET -1.8737 -0.2304 -0.0886
                      }
                    }
                  }
                }
                JOINT RightHandPinky1
                {
                  OFFSET -7.9094 -0.601105 -3.4825
                  CHANNELS 3 Zrotation Xrotation Yrotation
                  JOINT RightHandPinky2
                  {
                    OFFSET -2.2874 -0.477005 -0.6314
                    CHANNELS 3 Zrotation Xrotation Yrotation
                    JOINT RightHandPinky3
                    {
                      OFFSET -1.6774 -0.349396 -0.4633
                      CHANNELS 3 Zrotation Xrotation Yrotation
                      End Site
                      {
                        OFFSET -1.4888 -0.4091 -0.3416
                      }
                    }
                  }
                }
                JOINT RightHandThumb1
                {
                  OFFSET -1.833 -1.38751 1.3896
                  CHANNELS 3 Zrotation Xrotation Yrotation
                  JOINT RightHandThumb2
                  {
                    OFFSET -3.41299 -1.12099 2.5732
                    CHANNELS 3 Zrotation Xrotation Yrotation
                    JOINT RightHandThumb3
                    {
                      OFFSET -2.24741 -0.804108 1.6192
                      CHANNELS 3 Zrotation Xrotation Yrotation
                      End Site
                      {
                        OFFSET -1.6527 -0.5689 1.1317
                      }
                    }
                  }
                }
              }
            }
          }
        }
      }
    }
  }
  JOINT RightUpLeg
  {
    OFFSET -9.1966 3.8861 -0.7581
    CHANNELS 3 Zrotation Xrotation Yrotation
    JOINT RightLeg
    {
      OFFSET -0.7359 -41.0265 0
      CHANNELS 3 Zrotation Xrotation Yrotation
      JOINT RightFoot
      {
        OFFSET 0 -40.2855 0
        CHANNELS 3 Zrotation Xrotation Yrotation
        JOINT RightToeBase
        {
          OFFSET 0 -5.6122 11.7359
          CHANNELS 3 Zrotation Xrotation Yrotation
          End Site
          {
            OFFSET 0 0 7.8731
          }
        }
      }
    }
  }
  JOINT LeftUpLeg
  {
    OFFSET 9.1965 3.8864 -0.7581
    CHANNELS 3 Zrotation Xrotation Yrotation
    JOINT LeftLeg
    {
      OFFSET 0.7359 -41.0268 0
      CHANNELS 3 Zrotation Xrotation Yrotation
      JOINT LeftFoot
      {
        OFFSET 0 -40.2855 0
        CHANNELS 3 Zrotation Xrotation Yrotation
        JOINT LeftToeBase
        {
          OFFSET 0 -5.6122 11.7359
          CHANNELS 3 Zrotation Xrotation Yrotation
          End Site
          {
            OFFSET 0 0 7.8731
          }
        }
      }
    }
  }
}
MOTION
Frames:	4
Frame Time:	0.0333333
15.9224 13.3291 23.0864 -0 -33.0001 -0 0 15.5992 -0 0 31.1985 -0 0 31.1985 -0 0 30.9996 -0 1.50934 -14.1735 22.3179 0 0 -0 -75.9999 3.59875e-006 4.99679 5.65719e-006 1.18592e-005 -141.005 -12.0835 -12.7975 6.9838 -6.36111e-015 0 3.18055e-015 -3.18055e-015 -3.97569e-016 3.18055e-015 6.62086e-032 -1.19271e-015 3.18055e-015 -6.36111e-015 0 3.18055e-015 -0.0146444 -8.67759e-005 -2.30566e-006 -3.18055e-015 -2.38542e-015 -0 -6.36111e-015 0 3.18055e-015 -0.0187528 -0.00117896 6.20792e-005 -1.27222e-014 2.38542e-015 4.77083e-015 -6.36111e-015 0 3.18055e-015 -0.0122622 -0.00325216 0.000676981 -4.78909e-030 2.46493e-014 1.11319e-014 -6.36111e-015 0 3.18055e-015 -3.18055e-015 -3.97569e-016 3.18055e-015 6.62086e-032 -1.19271e-015 3.18055e-015 7.91581e-008 7.62516e-007 1.9987 66.7911 20.702 49.106 4.71596 1.93137 10.9626 14.9978 16.9982 3.30759e-006 1.71704e-006 3.44178e-006 2.88505e-006 3.52033e-007 4.25006e-006 -9.08757e-007 6.37322e-006 3.39539e-006 -1.50597e-007 1.71704e-006 3.44178e-006 2.88505e-006 0.0150233 -8.94715e-005 2.93026e-006 6.37354e-006 3.39537e-006 -1.51048e-007 1.71704e-006 3.44178e-006 2.88505e-006 0.0189866 -0.00119048 -5.58163e-005 6.37363e-006 3.39534e-006 -1.51228e-007 1.71704e-006 3.44178e-006 2.88505e-006 0.012299 -0.00325203 -0.000678958 6.37346e-006 3.39534e-006 -1.51158e-007 1.71704e-006 3.44178e-006 2.88505e-006 3.52033e-007 4.25006e-006 -9.08757e-007 6.37322e-006 3.39539e-006 -1.50597e-007 -37.1728 -12.7509 8.61471 -179.851 41.7154 173.799 1.35864 15.5423 -3.78288 0 0 -4.77083e-015 30.3136 -18.8734 -7.2836 179.901 38.5052 -172.884 -1.50995 42.7032 5.64951 3.77262e-006 2.09438e-006 1.52992e-006 
15.9261 12.8681 23.0916 -0 -33.0001 -0 0 15.5992 -0 0 31.1985 -0 0 31.1985 -0 0 30.9996 -0 1.27174 -12.8935 22.6852 0 0 -0 -75.9999 -3.32752e-006 4.99678 1.52588e-005 -5.45341e-015 -141.005 -11.9181 -13.5424 7.41829 -3.98753e-006 2.32592e-007 3.54333e-007 -1.0417e-006 3.16786e-006 3.16801e-006 -1.8166e-006 1.46219e-006 2.17093e-006 -3.98753e-006 2.32592e-007 3.54333e-007 -0.01461 -8.74234e-005 2.92648e-006 -1.81675e-006 1.46191e-006 2.17112e-006 -3.98753e-006 2.32592e-007 3.54333e-007 -0.0187399 -0.00116968 6.21781e-005 -1.81678e-006 1.46182e-006 2.17119e-006 -3.98753e-006 2.32592e-007 3.54333e-007 -0.0122372 -0.00323431 0.000675761 -1.81666e-006 1.46193e-006 2.17115e-006 -3.98753e-006 2.32592e-007 3.54333e-007 -1.0417e-006 3.16786e-006 3.16801e-006 -1.8166e-006 1.46219e-006 2.17093e-006 7.91581e-008 7.62516e-007 1.9987 66.7911 20.702 49.106 4.71596 1.93137 10.9626 14.9978 16.9982 3.30759e-006 1.71704e-006 3.44178e-006 2.88505e-006 3.52033e-007 4.25006e-006 -9.08757e-007 6.37322e-006 3.39539e-006 -1.50597e-007 1.71704e-006 3.44178e-006 2.88505e-006 0.0150233 -8.94715e-005 2.93026e-006 6.37354e-006 3.39537e-006 -1.51048e-007 1.71704e-006 3.44178e-006 2.88505e-006 0.0189866 -0.00119048 -5.58163e-005 6.37363e-006 3.39534e-006 -1.51228e-007 1.71704e-006 3.44178e-006 2.88505e-006 0.012299 -0.00325203 -0.000678958 6.37346e-006 3.39534e-006 -1.51158e-007 1.71704e-006 3.44178e-006 2.88505e-006 3.52033e-007 4.25006e-006 -9.08757e-007 6.37322e-006 3.39539e-006 -1.50597e-007 -38.3961 -12.5388 8.28415 -179.851 41.7154 173.802 1.36064 15.5899 -3.78179 -8.57367e-007 -6.83099e-007 -1.28943e-006 31.6178 -19.3013 -6.2716 179.905 38.0449 -172.811 -1.57106 42.7397 5.72438 5.52529e-008 3.09794e-006 8.96056e-007 
15.9298 12.407 23.0969 -0 -33.0001 -0 0 15.5992 -0 0 31.1985 -0 0 31.1985 -0 0 30.9995 -0 1.02842 -11.6226 23.0538 0 0 -0 -75.9999 1.07973e-006 4.99678 1.52588e-005 -5.45341e-015 -141.005 -11.7465 -14.2857 7.85611 -6.36111e-015 7.95139e-016 -0 -4.76307e-006 -1.55506e-006 -5.59056e-007 7.80361e-007 1.78383e-006 9.48963e-007 -6.36111e-015 7.95139e-016 -0 -0.0145859 -9.5015e-005 -5.03111e-007 3.18055e-015 -3.18055e-015 -1.59028e-015 -6.36111e-015 7.95139e-016 -0 -0.018733 -0.00117933 6.09699e-005 3.18055e-015 2.38542e-015 -0 -6.36111e-015 7.95139e-016 -0 -0.0123124 -0.00325887 0.000675225 7.817e-007 1.78407e-006 9.4906e-007 -6.36111e-015 7.95139e-016 -0 -4.76307e-006 -1.55506e-006 -5.59056e-007 7.80361e-007 1.78383e-006 9.48963e-007 7.91581e-008 7.62516e-007 1.9987 66.7911 20.702 49.106 4.71596 1.93137 10.9626 14.9978 16.9982 3.30759e-006 1.71704e-006 3.44178e-006 2.88505e-006 3.52033e-007 4.25006e-006 -9.08757e-007 6.37322e-006 3.39539e-006 -1.50597e-007 1.71704e-006 3.44178e-006 2.88505e-006 0.0150233 -8.94715e-005 2.93026e-006 6.37354e-006 3.39537e-006 -1.51048e-007 1.71704e-006 3.44178e-006 2.88505e-006 0.0189866 -0.00119048 -5.58163e-005 6.37363e-006 3.39534e-006 -1.51228e-007 1.71704e-006 3.44178e-006 2.88505e-006 0.012299 -0.00325203 -0.000678958 6.37346e-006 3.39534e-006 -1.51158e-007 1.71704e-006 3.44178e-006 2.88505e-006 3.52033e-007 4.25006e-006 -9.08757e-007 6.37322e-006 3.39539e-006 -1.50597e-007 -39.617 -12.3201 7.95874 -179.851 41.7155 173.804 1.36252 15.6381 -3.78105 -6.68496e-006 6.48658e-006 5.46078e-006 32.932 -19.7114 -5.24416 179.909 37.5851 -172.734 -1.63373 42.7776 5.80161 4.39171e-007 -4.84019e-007 1.09951e-006 
15.9335 11.9459 23.1022 -0 -33.0001 -0 0 15.5992 -0 0 31.1985 -0 0 31.1985 -0 0 30.9991 -0 0.779433 -10.3613 23.424 -0 -6.36111e-015 -0 -75.9999 2.7944e-007 4.99678 1.52588e-005 5.45341e-015 -141.005 -11.5686 -15.0271 8.29741 1.33488e-005 -1.30073e-006 -4.01007e-007 1.55503e-005 -6.48311e-008 1.37511e-006 3.97767e-006 -2.2493e-007 -4.25433e-007 1.33488e-005 -1.30073e-006 -4.01007e-007 -0.0146076 -8.72304e-005 3.36338e-006 3.97801e-006 -2.24874e-007 -4.25465e-007 1.33488e-005 -1.30073e-006 -4.01007e-007 -0.0187499 -0.00117288 6.1721e-005 3.97811e-006 -2.24835e-007 -4.25512e-007 1.33488e-005 -1.30073e-006 -4.01007e-007 -0.0122332 -0.00324033 0.000678202 6.53755e-006 4.16175e-006 1.7996e-007 1.33488e-005 -1.30073e-006 -4.01007e-007 1.55503e-005 -6.48311e-008 1.37511e-006 3.97767e-006 -2.2493e-007 -4.25433e-007 5.85529e-008 7.59757e-007 1.9987 66.7912 20.702 49.106 4.71595 1.93137 10.9626 14.9978 16.9983 -4.73426e-006 1.71704e-006 3.44178e-006 2.88505e-006 1.2144e-006 1.67065e-006 -2.57941e-006 6.37322e-006 3.39539e-006 -1.50597e-007 1.71704e-006 3.44178e-006 2.88505e-006 0.01503 -9.04286e-005 -4.3543e-006 6.37354e-006 3.39537e-006 -1.51047e-007 1.71704e-006 3.44178e-006 2.88505e-006 0.0189878 -0.00118881 -5.83947e-005 6.37362e-006 3.39534e-006 -1.51227e-007 1.71704e-006 3.44178e-006 2.88505e-006 0.0122468 -0.00323547 -0.000680295 6.37346e-006 3.39534e-006 -1.51154e-007 1.71704e-006 3.44178e-006 2.88505e-006 1.2144e-006 1.67065e-006 -2.57941e-006 6.37322e-006 3.39539e-006 -1.50597e-007 -40.8354 -12.0949 7.63873 -179.851 41.7158 173.806 1.36422 15.6869 -3.78062 2.20695e-031 -3.18055e-015 3.97569e-015 34.256 -20.1033 -4.20162 179.913 37.1261 -172.655 -1.69803 42.8171 5.88132 3.15267e-007 -4.36667e-006 4.53552e-007 
